<svg xmlns="http://www.w3.org/2000/svg" width="183.31" height="49.111" viewBox="0 0 183.31 49.111"><defs><clipPath id="clip-path"><path id="Path_598" data-name="Path 598" d="M0-23.758h183.31v-49.111H0z" transform="translate(0 72.869)" fill="none"/></clipPath></defs><g id="logo" transform="translate(0 72.869)"><g id="Group_472" data-name="Group 472" transform="translate(0 -72.869)" clip-path="url(#clip-path)"><g id="Group_463" data-name="Group 463" transform="translate(9.077 20.88)"><path id="Path_589" data-name="Path 589" d="M-.052-2.734l5.475-5.474a.6.6 0 01.851 0l5.475 5.475a.363.363 0 01-.257.62H.2a.363.363 0 01-.257-.62" transform="translate(.159 8.384)" fill="#2b2a30"/></g><g id="Group_464" data-name="Group 464"><path id="Path_590" data-name="Path 590" d="M-12.948-3.248v-5.581a1.132 1.132 0 00-1.132-1.132h-17.8a8.1 8.1 0 00-7.829 8.33v18.574a.358.358 0 00.358.358h3a.051.051 0 00.051-.051V11.8a4.7 4.7 0 014.416-4.93H-9.9a.357.357 0 00.358-.358v-8.784a.976.976 0 00-.976-.976zm-18.936-3.31h15.23a.3.3 0 01.3.3v3.007h-15.53A7.461 7.461 0 00-36.3-1.79a4.68 4.68 0 014.417-4.768m18.935 10.024h-18.936a7.462 7.462 0 00-4.423 1.46 4.683 4.683 0 014.423-4.77h18.551a.385.385 0 01.386.386z" transform="translate(39.713 9.961)" fill="#e8a560"/></g><g id="Group_465" data-name="Group 465" transform="translate(0 21.849)"><path id="Path_591" data-name="Path 591" d="M-1.646-9.941v5.582A1.132 1.132 0 00-.514-3.227h17.8a8.1 8.1 0 007.829-8.33v-18.574a.358.358 0 00-.358-.358h-3a.051.051 0 00-.051.051v5.453a4.7 4.7 0 01-4.425 4.927H-4.692a.358.358 0 00-.358.358v8.784a.976.976 0 00.976.976zm18.936 3.31H2.06a.3.3 0 01-.3-.3v-3.01h15.53a7.463 7.463 0 004.418-1.459 4.681 4.681 0 01-4.418 4.769M-1.646-16.655H17.29a7.462 7.462 0 004.423-1.46 4.683 4.683 0 01-4.423 4.77H-1.261a.385.385 0 01-.386-.385z" transform="translate(5.05 30.489)" fill="#e8a560"/></g><g id="Group_466" data-name="Group 466" transform="translate(43.289 11.017)"><path id="Path_592" data-name="Path 592" d="M-2.516-6.834a9.766 9.766 0 01-3.176-2.707 6.4 6.4 0 01-1.24-3.959A6.2 6.2 0 01-5.6-17.467a8.4 8.4 0 013.683-2.588 14.657 14.657 0 015.3-.906 12.707 12.707 0 015.121.978 8.059 8.059 0 013.521 2.833 7.423 7.423 0 011.262 3.877.528.528 0 01-.531.547H7.064a.521.521 0 01-.52-.452 2.617 2.617 0 00-.833-1.673 3.558 3.558 0 00-2.489-.787 5.087 5.087 0 00-1.864.307 2.777 2.777 0 00-1.177.805 1.716 1.716 0 00-.4 1.1 2.016 2.016 0 001.149 1.7 17.558 17.558 0 003.52 1.484 17.386 17.386 0 016.6 3.511 7.028 7.028 0 012.235 5.358A6.779 6.779 0 0112.073 2.7a7.444 7.444 0 01-3.422 2.547 14.152 14.152 0 01-5.194.869A15.209 15.209 0 01-2 5.148a9.284 9.284 0 01-4.136-3.033 7.989 7.989 0 01-1.58-4.629.53.53 0 01.532-.546h5.731a.522.522 0 01.526.481A4.246 4.246 0 00-.462-.743 2.63 2.63 0 00.977.46a7.284 7.284 0 002.48.353A3.6 3.6 0 005.783.189a1.917 1.917 0 00.751-1.53 2.474 2.474 0 00-.326-1.312 3.374 3.374 0 00-1.276-1.059A18.175 18.175 0 002.1-4.87a28.985 28.985 0 01-4.616-1.964" transform="translate(7.717 20.961)" fill="#2b2a30"/></g><g id="Group_467" data-name="Group 467" transform="translate(67.262 11.379)"><path id="Path_593" data-name="Path 593" d="M-10.779-.256v25.3a.529.529 0 01-.529.529h-5.675a.529.529 0 01-.528-.529v-9.62a.529.529 0 00-.529-.529h-7.74a.529.529 0 00-.529.529v9.62a.529.529 0 01-.529.529h-5.693a.53.53 0 01-.529-.529v-25.3a.529.529 0 01.529-.529h5.693a.529.529 0 01.529.529v9.169a.529.529 0 00.529.529h7.739a.529.529 0 00.529-.529V-.256a.529.529 0 01.528-.529h5.675a.529.529 0 01.529.529" transform="translate(33.06 .785)" fill="#2b2a30"/></g><g id="Group_468" data-name="Group 468" transform="translate(93.287 11.379)"><path id="Path_594" data-name="Path 594" d="M-3.266-2.9V.8a.529.529 0 00.529.529H6a.528.528 0 01.528.528V6.05A.529.529 0 016 6.579h-8.737a.529.529 0 00-.529.529v4.372a.529.529 0 00.529.529H7.807a.529.529 0 01.529.528v4.391a.53.53 0 01-.529.529h-17.3a.53.53 0 01-.529-.529v-25.3a.529.529 0 01.534-.528H7.879a.529.529 0 01.529.529v4.408a.529.529 0 01-.529.529H-2.737a.529.529 0 00-.529.529" transform="translate(10.017 8.896)" fill="#2b2a30"/></g><g id="Group_469" data-name="Group 469" transform="translate(114.446 11.379)"><path id="Path_595" data-name="Path 595" d="M-10.428-12.609v.29h-6.912a.53.53 0 01-.474-.293l-4.143-8.319a.527.527 0 00-.473-.293h-2.275a.529.529 0 00-.529.528v7.848a.529.529 0 01-.529.529h-5.693a.529.529 0 01-.528-.529v-25.3a.529.529 0 01.528-.529h10.1a14.2 14.2 0 015.339.915 7.58 7.58 0 013.5 2.7 7.447 7.447 0 011.24 4.344 8.631 8.631 0 01-1.149 4.787 8.105 8.105 0 01-2.913 2.608.531.531 0 00-.225.706zm-14.807-14.628a.529.529 0 00.529.529h3.345a3.416 3.416 0 002.489-.824 3.232 3.232 0 00.842-2.415 3.217 3.217 0 00-.869-2.407 3.372 3.372 0 00-2.462-.851h-3.345a.53.53 0 00-.529.529z" transform="translate(31.985 38.672)" fill="#2b2a30"/></g><g id="Group_470" data-name="Group 470" transform="translate(138.402 11.379)"><path id="Path_596" data-name="Path 596" d="M-7.784-.574A8.68 8.68 0 01-4.164 2.7 8.945 8.945 0 01-2.9 7.435a8.063 8.063 0 01-1.268 4.489 8.369 8.369 0 01-3.61 3.041 12.91 12.91 0 01-5.475 1.086h-3.346a.529.529 0 00-.528.529v7.485a.53.53 0 01-.529.529h-5.693a.529.529 0 01-.529-.529v-25.3a.529.529 0 01.529-.529h10.1a12 12 0 015.465 1.19m-2.823 10.3a3 3 0 00.869-2.253 4.08 4.08 0 00-.887-2.7 3.213 3.213 0 00-2.624-1.068h-3.346a.528.528 0 00-.528.528v5.8a.529.529 0 00.528.529h3.346a3.668 3.668 0 002.642-.841" transform="translate(23.874 1.76)" fill="#2b2a30"/></g><g id="Group_471" data-name="Group 471" transform="translate(158.082 11.379)"><path id="Path_597" data-name="Path 597" d="M-7.958-10.638h-7.689a.53.53 0 00-.506.373l-1.109 3.615a.528.528 0 01-.505.374h-6.111a.529.529 0 01-.5-.71l9.225-25.3a.529.529 0 01.5-.348h5.668a.529.529 0 01.5.347l9.272 25.3a.529.529 0 01-.5.712h-6.123a.528.528 0 01-.505-.374l-1.111-3.615a.529.529 0 00-.505-.373m-1.5-6.151l-1.851-6a.529.529 0 00-1.011 0l-1.839 6a.529.529 0 00.506.684h3.69a.529.529 0 00.505-.685" transform="translate(24.408 32.629)" fill="#2b2a30"/></g></g></g></svg>